<svg xmlns="http://www.w3.org/2000/svg" width="24" height="24" viewBox="0 0 24 24"><!-- SAM GH icon cellComplex_validate --><g vector-effect="non-scaling-stroke"><polygon points="10,3 20,8 10,13 0,8" fill="#ADD485" stroke="#111111" stroke-width="1.1" stroke-linejoin="round"/><polygon points="0,8 10,13 10,20 0,15" fill="#81BC44" stroke="#111111" stroke-width="1.1" stroke-linejoin="round"/><polygon points="20,8 10,13 10,20 20,15" fill="#659335" stroke="#111111" stroke-width="1.1" stroke-linejoin="round"/><path d="M15 5.5L5 10.5M5 5.5L15 10.5M0 11.5L10 16.5M5 17.5L5 10.5M20 11.5L10 16.5M15 17.5L15 10.5" fill="none" stroke="#111111" stroke-width="0.9" stroke-linecap="round" stroke-linejoin="round"/></g><circle cx="19" cy="19" r="5" fill="#FFFFFF"/><circle cx="19" cy="19" r="4.2" fill="#111111"/><path d="M16.9 19.1L18.4 20.6L21.2 17.4" fill="none" stroke="#FFFFFF" stroke-width="1.5" stroke-linecap="round" stroke-linejoin="round"/></svg>
